<mxfile host="65bd71144e">
    <diagram id="F4elgVZbu_pHF8BznkAH" name="Page-1">
        <mxGraphModel dx="980" dy="1662" grid="1" gridSize="10" guides="1" tooltips="1" connect="1" arrows="1" fold="1" page="1" pageScale="1" pageWidth="850" pageHeight="1100" background="#F1FAEE" math="0" shadow="0">
            <root>
                <mxCell id="0"/>
                <mxCell id="1" parent="0"/>
                <mxCell id="23" style="edgeStyle=elbowEdgeStyle;orthogonalLoop=1;jettySize=auto;html=1;endArrow=open;endFill=0;entryX=0;entryY=0.5;entryDx=0;entryDy=0;fontSize=16;strokeColor=#457B9D;fontColor=#1D3557;labelBackgroundColor=#F1FAEE;" edge="1" parent="1" target="4">
                    <mxGeometry relative="1" as="geometry">
                        <mxPoint x="252" y="-820" as="targetPoint"/>
                        <Array as="points">
                            <mxPoint x="200" y="-820"/>
                        </Array>
                        <mxPoint x="80" y="-820" as="sourcePoint"/>
                    </mxGeometry>
                </mxCell>
                <mxCell id="Rnx6JJza0BKsh1WXI-u_-41" style="edgeStyle=elbowEdgeStyle;orthogonalLoop=1;jettySize=auto;html=1;entryX=0;entryY=0.5;entryDx=0;entryDy=0;startArrow=none;startFill=0;endArrow=open;endFill=0;startSize=6;endSize=6;sourcePerimeterSpacing=0;strokeWidth=1;fontSize=16;strokeColor=#457B9D;fontColor=#1D3557;labelBackgroundColor=#F1FAEE;" edge="1" parent="1" target="6">
                    <mxGeometry relative="1" as="geometry">
                        <Array as="points">
                            <mxPoint x="170" y="-890"/>
                        </Array>
                        <mxPoint x="80" y="-840" as="sourcePoint"/>
                    </mxGeometry>
                </mxCell>
                <mxCell id="Rnx6JJza0BKsh1WXI-u_-44" style="edgeStyle=elbowEdgeStyle;orthogonalLoop=1;jettySize=auto;html=1;entryX=0;entryY=0.5;entryDx=0;entryDy=0;startArrow=open;startFill=0;endArrow=none;endFill=0;startSize=6;endSize=6;sourcePerimeterSpacing=0;strokeWidth=1;targetPerimeterSpacing=0;fontSize=16;strokeColor=#457B9D;fontColor=#1D3557;labelBackgroundColor=#F1FAEE;" edge="1" parent="1" target="12">
                    <mxGeometry relative="1" as="geometry">
                        <mxPoint x="80" y="-800" as="sourcePoint"/>
                        <Array as="points">
                            <mxPoint x="200" y="-710"/>
                            <mxPoint x="60" y="-630"/>
                        </Array>
                    </mxGeometry>
                </mxCell>
                <mxCell id="35" style="edgeStyle=orthogonalEdgeStyle;orthogonalLoop=1;jettySize=auto;html=1;entryX=0;entryY=0.5;entryDx=0;entryDy=0;endArrow=open;endFill=0;fontSize=16;strokeColor=#457B9D;fontColor=#1D3557;labelBackgroundColor=#F1FAEE;" edge="1" parent="1" target="15">
                    <mxGeometry relative="1" as="geometry">
                        <Array as="points">
                            <mxPoint x="160" y="-750"/>
                            <mxPoint x="160" y="-530"/>
                        </Array>
                        <mxPoint x="80" y="-750" as="sourcePoint"/>
                    </mxGeometry>
                </mxCell>
                <mxCell id="37" style="edgeStyle=orthogonalEdgeStyle;orthogonalLoop=1;jettySize=auto;html=1;endArrow=open;endFill=0;strokeColor=#457B9D;fontColor=#1D3557;labelBackgroundColor=#F1FAEE;" edge="1" parent="1" target="36">
                    <mxGeometry relative="1" as="geometry">
                        <mxPoint x="55" y="-410" as="targetPoint"/>
                        <mxPoint x="60" y="-750" as="sourcePoint"/>
                        <Array as="points">
                            <mxPoint x="60" y="-730"/>
                            <mxPoint x="140" y="-730"/>
                            <mxPoint x="140" y="-420"/>
                        </Array>
                    </mxGeometry>
                </mxCell>
                <mxCell id="3" value="Customer&lt;br style=&quot;font-size: 16px;&quot;&gt;" style="shape=umlActor;verticalLabelPosition=bottom;verticalAlign=top;html=1;outlineConnect=0;fontSize=16;fillColor=#A8DADC;strokeColor=#457B9D;fontColor=#1D3557;" vertex="1" parent="1">
                    <mxGeometry x="30" y="-840" width="30" height="60" as="geometry"/>
                </mxCell>
                <mxCell id="4" value="Order food" style="ellipse;whiteSpace=wrap;html=1;fontSize=16;fillColor=#A8DADC;strokeColor=#457B9D;fontColor=#1D3557;" vertex="1" parent="1">
                    <mxGeometry x="250" y="-900" width="120" height="80" as="geometry"/>
                </mxCell>
                <mxCell id="6" value="View menu" style="ellipse;whiteSpace=wrap;html=1;fontSize=16;fillColor=#A8DADC;strokeColor=#457B9D;fontColor=#1D3557;" vertex="1" parent="1">
                    <mxGeometry x="250" y="-1010" width="120" height="80" as="geometry"/>
                </mxCell>
                <mxCell id="46" style="edgeStyle=orthogonalEdgeStyle;rounded=1;orthogonalLoop=1;jettySize=auto;html=1;startArrow=none;startFill=0;endArrow=block;endFill=0;fillColor=#A8DADC;strokeColor=#457B9D;labelBackgroundColor=#F1FAEE;fontColor=#1D3557;" edge="1" parent="1" source="Rnx6JJza0BKsh1WXI-u_-6">
                    <mxGeometry relative="1" as="geometry">
                        <mxPoint x="800" y="-255" as="targetPoint"/>
                    </mxGeometry>
                </mxCell>
                <mxCell id="Rnx6JJza0BKsh1WXI-u_-6" value="Get order&lt;br&gt;" style="ellipse;whiteSpace=wrap;html=1;fontSize=16;fillColor=#A8DADC;strokeColor=#457B9D;fontColor=#1D3557;" vertex="1" parent="1">
                    <mxGeometry x="240" y="-290" width="140" height="70" as="geometry"/>
                </mxCell>
                <mxCell id="Rnx6JJza0BKsh1WXI-u_-12" style="edgeStyle=elbowEdgeStyle;orthogonalLoop=1;jettySize=auto;html=1;entryX=0;entryY=0.5;entryDx=0;entryDy=0;fontSize=16;strokeColor=#457B9D;fontColor=#1D3557;rounded=1;labelBackgroundColor=#F1FAEE;" edge="1" parent="1" source="Rnx6JJza0BKsh1WXI-u_-7" target="Rnx6JJza0BKsh1WXI-u_-6">
                    <mxGeometry relative="1" as="geometry"/>
                </mxCell>
                <mxCell id="Rnx6JJza0BKsh1WXI-u_-7" value="Clerk" style="shape=umlActor;verticalLabelPosition=bottom;verticalAlign=top;html=1;fontSize=16;fillColor=#A8DADC;strokeColor=#457B9D;fontColor=#1D3557;" vertex="1" parent="1">
                    <mxGeometry x="30" y="-240" width="30" height="60" as="geometry"/>
                </mxCell>
                <mxCell id="Rnx6JJza0BKsh1WXI-u_-8" value="Voice call" style="ellipse;whiteSpace=wrap;html=1;fontSize=16;fillColor=#A8DADC;strokeColor=#457B9D;fontColor=#1D3557;" vertex="1" parent="1">
                    <mxGeometry x="630" y="-410" width="140" height="70" as="geometry"/>
                </mxCell>
                <mxCell id="Rnx6JJza0BKsh1WXI-u_-33" value="&amp;lt;&amp;lt;extend&amp;gt;&amp;gt;" style="edgeStyle=orthogonalEdgeStyle;orthogonalLoop=1;jettySize=auto;html=1;entryX=1;entryY=0.5;entryDx=0;entryDy=0;dashed=1;startArrow=none;startFill=0;endArrow=open;endFill=0;strokeWidth=1;startSize=6;sourcePerimeterSpacing=0;endSize=6;fontSize=16;strokeColor=#457B9D;fontColor=#1D3557;labelBackgroundColor=#F1FAEE;" edge="1" parent="1" source="8" target="6">
                    <mxGeometry y="-10" relative="1" as="geometry">
                        <mxPoint as="offset"/>
                    </mxGeometry>
                </mxCell>
                <mxCell id="8" value="Search food" style="ellipse;whiteSpace=wrap;html=1;fontSize=16;fillColor=#A8DADC;strokeColor=#457B9D;fontColor=#1D3557;" vertex="1" parent="1">
                    <mxGeometry x="510" y="-1010" width="120" height="80" as="geometry"/>
                </mxCell>
                <mxCell id="12" value="Receive meal" style="ellipse;whiteSpace=wrap;html=1;fontSize=16;fillColor=#A8DADC;strokeColor=#457B9D;fontColor=#1D3557;" vertex="1" parent="1">
                    <mxGeometry x="250" y="-790" width="120" height="80" as="geometry"/>
                </mxCell>
                <mxCell id="39" style="edgeStyle=orthogonalEdgeStyle;orthogonalLoop=1;jettySize=auto;html=1;startArrow=none;startFill=0;endArrow=open;endFill=0;strokeColor=#457B9D;fontColor=#1D3557;labelBackgroundColor=#F1FAEE;" edge="1" parent="1" source="14">
                    <mxGeometry relative="1" as="geometry">
                        <mxPoint x="80" y="-780" as="targetPoint"/>
                        <Array as="points">
                            <mxPoint x="180" y="-640"/>
                            <mxPoint x="180" y="-780"/>
                        </Array>
                    </mxGeometry>
                </mxCell>
                <mxCell id="14" value="Receive invoice" style="ellipse;whiteSpace=wrap;html=1;fontSize=16;fillColor=#A8DADC;strokeColor=#457B9D;fontColor=#1D3557;" vertex="1" parent="1">
                    <mxGeometry x="250" y="-680" width="120" height="80" as="geometry"/>
                </mxCell>
                <mxCell id="15" value="Pay" style="ellipse;whiteSpace=wrap;html=1;fontSize=16;fillColor=#A8DADC;strokeColor=#457B9D;fontColor=#1D3557;" vertex="1" parent="1">
                    <mxGeometry x="250" y="-570" width="120" height="80" as="geometry"/>
                </mxCell>
                <mxCell id="36" value="Feedback" style="ellipse;whiteSpace=wrap;html=1;fontSize=16;fillColor=#A8DADC;strokeColor=#457B9D;fontColor=#1D3557;" vertex="1" parent="1">
                    <mxGeometry x="250" y="-460" width="120" height="80" as="geometry"/>
                </mxCell>
                <mxCell id="Rnx6JJza0BKsh1WXI-u_-57" style="edgeStyle=orthogonalEdgeStyle;curved=0;rounded=1;sketch=0;orthogonalLoop=1;jettySize=auto;html=1;fontColor=#1D3557;strokeColor=#457B9D;fillColor=#A8DADC;entryX=1;entryY=0.5;entryDx=0;entryDy=0;endArrow=block;endFill=0;" edge="1" parent="1" source="41" target="12">
                    <mxGeometry relative="1" as="geometry">
                        <mxPoint x="40" y="-740" as="targetPoint"/>
                        <Array as="points">
                            <mxPoint x="460" y="-750"/>
                        </Array>
                    </mxGeometry>
                </mxCell>
                <mxCell id="41" value="Package food" style="ellipse;whiteSpace=wrap;html=1;fontSize=16;fillColor=#A8DADC;strokeColor=#457B9D;fontColor=#1D3557;" vertex="1" parent="1">
                    <mxGeometry x="390" y="-210" width="140" height="70" as="geometry"/>
                </mxCell>
                <mxCell id="Rnx6JJza0BKsh1WXI-u_-55" style="edgeStyle=orthogonalEdgeStyle;curved=0;rounded=1;sketch=0;orthogonalLoop=1;jettySize=auto;html=1;entryX=1;entryY=0.5;entryDx=0;entryDy=0;fontColor=#1D3557;strokeColor=#457B9D;fillColor=#A8DADC;endArrow=block;endFill=0;" edge="1" parent="1" target="Rnx6JJza0BKsh1WXI-u_-54">
                    <mxGeometry relative="1" as="geometry">
                        <mxPoint x="800" y="-240" as="sourcePoint"/>
                        <Array as="points">
                            <mxPoint x="750" y="-240"/>
                            <mxPoint x="750" y="-175"/>
                        </Array>
                    </mxGeometry>
                </mxCell>
                <mxCell id="45" value="Kitchen" style="shape=umlActor;verticalLabelPosition=bottom;verticalAlign=top;html=1;fontSize=16;fillColor=#A8DADC;strokeColor=#457B9D;fontColor=#1D3557;" vertex="1" parent="1">
                    <mxGeometry x="800" y="-285" width="30" height="60" as="geometry"/>
                </mxCell>
                <mxCell id="Rnx6JJza0BKsh1WXI-u_-56" style="edgeStyle=orthogonalEdgeStyle;curved=0;rounded=1;sketch=0;orthogonalLoop=1;jettySize=auto;html=1;entryX=1;entryY=0.5;entryDx=0;entryDy=0;fontColor=#1D3557;strokeColor=#457B9D;fillColor=#A8DADC;endArrow=block;endFill=0;" edge="1" parent="1" source="Rnx6JJza0BKsh1WXI-u_-54" target="41">
                    <mxGeometry relative="1" as="geometry"/>
                </mxCell>
                <mxCell id="Rnx6JJza0BKsh1WXI-u_-54" value="Make food" style="ellipse;whiteSpace=wrap;html=1;fontSize=16;fillColor=#A8DADC;strokeColor=#457B9D;fontColor=#1D3557;" vertex="1" parent="1">
                    <mxGeometry x="560" y="-210" width="140" height="70" as="geometry"/>
                </mxCell>
            </root>
        </mxGraphModel>
    </diagram>
</mxfile>